<?xml version="1.0" encoding="UTF-8" standalone="no"?><!DOCTYPE svg PUBLIC "-//W3C//DTD SVG 1.1//EN" "http://www.w3.org/Graphics/SVG/1.1/DTD/svg11.dtd"><svg width="100%" height="100%" viewBox="0 0 53 52" version="1.1" xmlns="http://www.w3.org/2000/svg" xmlns:xlink="http://www.w3.org/1999/xlink" xml:space="preserve" xmlns:serif="http://www.serif.com/" style="fill-rule:evenodd;clip-rule:evenodd;stroke-linecap:round;stroke-linejoin:round;stroke-miterlimit:1.5;"><path d="M42.86,50.907c4.661,-0.617 2.293,-6.166 2.293,-6.166c7.829,-1.944 3.145,-8.694 3.145,-8.694c6.891,-2.618 1.237,-9.14 1.237,-9.14c5.061,-5.403 -1.679,-8.052 -1.679,-8.052l-18.949,0c1.669,-11.898 -2.472,-16.899 -5.025,-17.948c-1.756,-0.722 -3.674,1.281 -3.674,1.281c0.321,14.981 -5.192,16.735 -5.192,16.735l-14.266,0.163l0.854,31.821l12.712,0c3.369,-4.785 7.073,0 7.073,0l21.471,0" style="fill:#32a23c;stroke:#32a23c;stroke-width:1.5px;"/></svg>